# xmcd
# Track frame offsets:
# 150
# 17387
# 31773
# 50401
# 65045
# 83310
# 97733
# 110161
# 121709
# 141332
# 155113
# 174421
# 196857
# 214955
# 232938
# 250756
# 259717
# 271047
# 284887
# 302836
#
# Disc length: 4266 seconds
# Revision: 0
# Processed by: cddbd v1.5PL3 Copyright (c) Steve Scherf et al.
# Submitted via: VisiTrax 2.9.5.181 - For more info visit www.synapsa.com
#
DISCID=0e10a814
DTITLE=Joe Longthorne - You're My World Disk 2
DYEAR=2002
DGENRE=pop
TTITLE0=Let The Heartaches Begin
TTITLE1=Hurt
TTITLE2=Don't Laught At Me
TTITLE3=Crying In The Rain
TTITLE4=Always On My Mind
TTITLE5=Seven Wonders Of The World
TTITLE6=I'd Be A Legend In My Time
TTITLE7=Answer Me
TTITLE8=Everybody Loves Me
TTITLE9=It's Only Make Believe
TTITLE10=End Of The World
TTITLE11=Bridge Over Troubled Waters
TTITLE12=One Love In A Million
TTITLE13=When Your Old Wedding Ring Was New
TTITLE14=My Mother's Eyes
TTITLE15=Winter Wonderland
TTITLE16=Christmas Song
TTITLE17=Silent Night
TTITLE18=Mary's Boy Child
TTITLE19=White Christmas
EXTD=
EXTT0=
EXTT1=
EXTT2=
EXTT3=
EXTT4=
EXTT5=
EXTT6=
EXTT7=
EXTT8=
EXTT9=
EXTT10=
EXTT11=
EXTT12=
EXTT13=
EXTT14=
EXTT15=
EXTT16=
EXTT17=
EXTT18=
EXTT19=
PLAYORDER=
